<svg width="35" height="35" viewBox="0 0 35 35" fill="none" xmlns="http://www.w3.org/2000/svg">
<g clip-path="url(#clip0_813:1581)">
<path d="M11.147 17.4992C11.147 21.002 13.9973 23.8523 17.5009 23.8523C21.0037 23.8523 23.8533 21.002 23.8533 17.4992C23.8533 13.9956 21.0037 11.1452 17.5009 11.1452C13.9973 11.1452 11.147 13.9956 11.147 17.4992Z" fill="#4086F4"/>
<path d="M32.1297 9.11333C32.154 9.07057 32.1665 9.02214 32.1661 8.97296C32.1657 8.92378 32.1523 8.87558 32.1272 8.83324C30.6428 6.33629 28.5469 4.25852 26.0372 2.79581C23.4439 1.29051 20.4984 0.498415 17.5 0.5C12.3028 0.5 7.45943 2.83224 4.21082 6.89929C4.17583 6.94308 4.15487 6.99641 4.15068 7.0523C4.14649 7.1082 4.15927 7.16406 4.18734 7.21257L8.97324 15.5021C9.00095 15.55 9.04229 15.5885 9.09199 15.6128C9.1417 15.6371 9.19751 15.646 9.25231 15.6385C9.30711 15.6309 9.35842 15.6072 9.39969 15.5704C9.44097 15.5336 9.47034 15.4853 9.48405 15.4317C9.97437 13.5306 11.1244 11.8657 12.7289 10.7343C14.3334 9.60284 16.2878 9.07854 18.2431 9.255H31.8876C31.9369 9.25491 31.9853 9.24175 32.0278 9.21686C32.0703 9.19197 32.1055 9.15625 32.1297 9.11333Z" fill="#DC4234"/>
<path d="M20.0119 25.5726C19.978 25.529 19.9319 25.4965 19.8794 25.4792C19.8269 25.4619 19.7705 25.4606 19.7173 25.4754C18.9968 25.6754 18.252 25.7766 17.4992 25.7766C14.3072 25.7766 11.3646 23.9041 10.003 21.006C9.99971 20.9989 9.9962 20.9919 9.99245 20.985L3.16574 9.1619C3.1414 9.11941 3.10628 9.08409 3.06392 9.0595C3.02157 9.03491 2.97348 9.02193 2.9245 9.02186H2.92288C2.87367 9.02217 2.82542 9.03552 2.78304 9.06055C2.74067 9.08558 2.70568 9.12139 2.68165 9.16433C0.964695 12.2194 0.233356 15.7302 0.587641 19.2167C0.941927 22.7031 2.36454 25.9951 4.66093 28.6423C7.31145 31.6966 10.9641 33.7058 14.9629 34.309C15.0182 34.3172 15.0747 34.3086 15.1251 34.2843C15.1754 34.2601 15.2174 34.2213 15.2455 34.173L20.0322 25.8818C20.0598 25.8339 20.0725 25.7788 20.0688 25.7236C20.065 25.6684 20.0449 25.6155 20.0111 25.5718L20.0119 25.5726Z" fill="#069F57"/>
<path d="M33.0697 11.1137H23.4857C23.4304 11.1137 23.3764 11.1303 23.3305 11.1612C23.2846 11.1921 23.249 11.236 23.2282 11.2872C23.2073 11.3385 23.2022 11.3947 23.2135 11.4489C23.2248 11.503 23.2519 11.5526 23.2915 11.5913C24.0807 12.3593 24.7074 13.2781 25.1343 14.2932C25.5612 15.3083 25.7797 16.3988 25.7767 17.5C25.7796 19.1943 25.2587 20.848 24.2856 22.2349L17.4483 34.079C17.4239 34.1214 17.4111 34.1695 17.4111 34.2184C17.4112 34.2673 17.424 34.3154 17.4485 34.3578C17.4729 34.4001 17.508 34.4354 17.5503 34.4599C17.5926 34.4844 17.6406 34.4974 17.6896 34.4976H17.6928C22.1675 34.4578 26.4437 32.6446 29.5831 29.4559C32.7423 26.28 34.5109 21.9796 34.5001 17.5C34.5001 15.3588 34.1067 13.2694 33.3304 11.291C33.3099 11.2389 33.2742 11.1943 33.228 11.1628C33.1818 11.1313 33.1272 11.1145 33.0713 11.1145L33.0697 11.1137Z" fill="#FFCE3E"/>
</g>
<defs>
<clipPath id="clip0_813:1581">
<rect width="34" height="34" fill="white" transform="translate(0.5 0.5)"/>
</clipPath>
</defs>
</svg>
