<svg xmlns="http://www.w3.org/2000/svg" height="20px" fill="#ffffff" version="1.1"
    viewBox="-5.0 -10.0 110.0 135.0">
    <g>
        <path
            d="m90.625 87.5h-81.25c-1.7266 0-3.125 1.3984-3.125 3.125s1.3984 3.125 3.125 3.125h81.25c1.7266 0 3.125-1.3984 3.125-3.125s-1.3984-3.125-3.125-3.125z" />
        <path
            d="m65.043 6.25h-30.09c-1.7266 0-3.125 1.3984-3.125 3.125v34.82h-13.078c-1.2422 0-2.3633 0.73438-2.8633 1.8711-0.49609 1.1328-0.27344 2.4609 0.56641 3.3711l31.25 33.93c0.58984 0.64062 1.4258 1.0078 2.2969 1.0078s1.707-0.36719 2.2969-1.0078l31.25-33.93c0.83984-0.91406 1.0625-2.2344 0.56641-3.3711-0.5-1.1367-1.6211-1.8711-2.8633-1.8711h-13.082v-34.82c0-1.7266-1.3945-3.125-3.125-3.125z" />
    </g>
</svg>